<?xml version="1.0" encoding="utf-8"?>
<!-- Generator: Adobe Illustrator 19.2.1, SVG Export Plug-In . SVG Version: 6.00 Build 0)  -->
<svg version="1.1" id="Layer_1" xmlns="http://www.w3.org/2000/svg" xmlns:xlink="http://www.w3.org/1999/xlink" x="0px" y="0px"
	 viewBox="0 0 550.578 200.919" style="enable-background:new 0 0 550.578 200.919;" xml:space="preserve">
<style type="text/css">
	.st0{fill:#E52713;}
	.st1{fill:#631461;}
	.st2{clip-path:url(#SVGID_2_);}
	.st3{clip-path:url(#SVGID_4_);fill:#631461;}
</style>
<rect x="58.592" y="8.513" class="st0" width="37.415" height="37.415"/>
<rect x="21.176" y="45.928" class="st1" width="37.416" height="37.416"/>
<rect x="58.593" y="83.345" class="st0" width="37.415" height="37.415"/>
<rect x="21.176" y="120.76" class="st1" width="37.416" height="37.415"/>
<rect x="58.592" y="158.177" class="st0" width="37.415" height="33.869"/>
<g>
	<defs>
		<rect id="SVGID_1_" x="21.176" y="8.874" width="574.104" height="183.532"/>
	</defs>
	<clipPath id="SVGID_2_">
		<use xlink:href="#SVGID_1_"  style="overflow:visible;"/>
	</clipPath>
	<g class="st2">
		<defs>
			<rect id="SVGID_3_" x="-48.907" y="-53.742" width="813.55" height="576"/>
		</defs>
		<clipPath id="SVGID_4_">
			<use xlink:href="#SVGID_3_"  style="overflow:visible;"/>
		</clipPath>
		<path class="st3" d="M178.219,92.717c-3.858,0-6.915,2.361-8.465,5.741h-0.106v-5.04h-3.971v27.23h4.186v-14.263
			c0-2.732,0.37-5.199,2.14-7.342c1.448-1.714,3.432-2.733,5.63-2.733c1.769,0,3.751,0.912,4.664,2.467
			c0.802,1.395,0.747,3.432,0.747,5.036v16.835h4.183v-15.068c0-2.675,0.106-6.322-1.289-8.628
			C184.223,94.112,181.49,92.717,178.219,92.717"/>
		<rect x="192.395" y="93.417" class="st3" width="4.179" height="27.23"/>
		<rect x="192.183" y="83.875" class="st3" width="4.609" height="4.718"/>
		<path class="st3" d="M257.329,99.795h-0.106v-6.377h-3.751v27.23h4.183v-13.722c0-2.144,0.213-3.863,1.34-5.847
			c1.556-2.733,3.805-4.288,7.025-4.288h0.85v-4.022l-1.547-0.106C260.925,92.663,258.618,96.093,257.329,99.795"/>
		<path class="st3" d="M287.942,106.602c-1.663-1.125-3.703-1.502-5.685-1.879l-3.963-0.695c-2.421-0.377-4.879-1.018-4.879-3.968
			c0-2.999,3.319-3.969,5.79-3.969c3.104,0,5.885,1.289,6.967,4.292l3.851-0.807c-1.328-5.035-5.884-6.861-10.766-6.861
			c-4.982,0-10.187,2.361-10.187,7.986c0,4.824,3.806,6.759,7.986,7.562l4.45,0.806c2.363,0.43,5.304,1.227,5.304,4.123
			c0,3.486-3.696,4.505-6.592,4.505c-3.268,0-7.609-1.395-8.201-5.093l-4.07,0.806c1.395,5.576,6.647,7.772,11.958,7.772
			c5.301,0,11.308-2.25,11.308-8.419C291.214,110.297,290.079,108.046,287.942,106.602"/>
		<rect x="295.854" y="93.417" class="st3" width="4.182" height="27.23"/>
		<rect x="295.641" y="83.875" class="st3" width="4.608" height="4.718"/>
		<path class="st3" d="M383.507,93.417h-4.818v3.321h4.818v23.909h4.181V96.739h6.332v-3.321h-6.332
			c-0.053-3.433-0.106-6.759,4.511-6.759c1.178,0,2.303,0.216,3.428,0.429l0.947-3.375l-3.749-0.377
			C386.236,82.695,383.292,87.681,383.507,93.417"/>
		<polygon class="st3" points="413.486,103.224 428.107,103.224 428.107,99.524 413.486,99.524 413.486,87.841 431.961,87.841 
			431.961,83.876 408.701,83.876 408.701,120.648 432.499,120.648 432.499,116.679 413.486,116.679 		"/>
		<path class="st3" d="M454.533,106.602c-1.666-1.125-3.702-1.502-5.679-1.879l-3.97-0.695c-2.416-0.377-4.877-1.018-4.877-3.968
			c0-2.999,3.319-3.969,5.784-3.969c3.116,0,5.897,1.289,6.969,4.292l3.864-0.807c-1.346-5.035-5.901-6.861-10.784-6.861
			c-4.983,0-10.177,2.361-10.177,7.986c0,4.824,3.811,6.759,7.989,7.562l4.449,0.806c2.356,0.43,5.306,1.227,5.306,4.123
			c0,3.486-3.696,4.505-6.6,4.505c-3.26,0-7.606-1.395-8.194-5.093l-4.072,0.806c1.386,5.576,6.64,7.772,11.949,7.772
			c5.303,0,11.309-2.25,11.309-8.419C457.8,110.297,456.678,108.046,454.533,106.602"/>
		<path class="st3" d="M480.691,106.602c-1.666-1.125-3.692-1.502-5.689-1.879l-3.956-0.695c-2.409-0.377-4.881-1.018-4.881-3.968
			c0-2.999,3.319-3.969,5.791-3.969c3.102,0,5.894,1.289,6.962,4.292l3.855-0.807c-1.33-5.035-5.891-6.861-10.764-6.861
			c-4.986,0-10.187,2.361-10.187,7.986c0,4.824,3.802,6.759,7.983,7.562l4.448,0.806c2.366,0.43,5.313,1.227,5.313,4.123
			c0,3.486-3.703,4.505-6.59,4.505c-3.277,0-7.62-1.395-8.21-5.093l-4.068,0.806c1.392,5.576,6.645,7.772,11.949,7.772
			c5.309,0,11.315-2.25,11.315-8.419C483.961,110.297,482.825,108.046,480.691,106.602"/>
		<path class="st3" d="M510.571,113.255c-1.614,4.992-6.389,8.003-11.596,8.003c-8.276,0-12.516-6.555-12.516-14.182
			c0-7.52,4.455-14.337,12.621-14.337c8.484,0,12.137,7.092,11.923,14.661h-19.823c0,2.153,0.116,4.136,1.132,6.178
			c1.284,2.577,4.139,4.132,6.983,4.132c3.541,0,6.118-2.036,7.306-5.262L510.571,113.255z M506.39,104.286
			c0.053-4.508-2.472-8.327-7.309-8.327c-4.57,0-7.52,4.032-7.679,8.327H506.39z"/>
		<path class="st3" d="M248.599,113.255c-1.608,4.992-6.388,8.003-11.595,8.003c-8.272,0-12.516-6.555-12.516-14.182
			c0-7.52,4.457-14.337,12.622-14.337c8.485,0,12.136,7.092,11.921,14.661h-19.819c0,2.153,0.106,4.136,1.125,6.178
			c1.289,2.577,4.138,4.132,6.99,4.132c3.544,0,6.123-2.036,7.299-5.262L248.599,113.255z M244.413,104.286
			c0.055-4.508-2.469-8.327-7.303-8.327c-4.569,0-7.524,4.032-7.685,8.327H244.413z"/>
		<path class="st3" d="M353.267,106.815c0-7.557,4.287-14.098,12.497-14.098c7.982,0,11.952,6.971,11.952,14.151
			c0,7.614-4.396,14.314-12.651,14.314C356.913,121.182,353.267,114,353.267,106.815 M371.71,113.787
			c1.122-2.144,1.336-4.611,1.336-6.972c0-2.573-0.32-5.252-1.719-7.45c-1.274-1.983-3.534-3.219-5.89-3.219
			c-2.634,0-4.979,1.505-6.168,3.862c-1.019,1.983-1.336,4.609-1.336,6.807c0,2.467,0.373,5.311,1.558,7.454
			c1.182,2.091,3.482,3.428,5.947,3.428C368.228,117.698,370.423,116.249,371.71,113.787"/>
		<path class="st3" d="M156.319,83.792v23.276c0,2.201-0.058,5.205-1.557,7.134c-1.598,2.1-5.397,2.773-8.134,2.831
			c-2.729-0.058-5.958-0.731-7.557-2.831c-1.492-1.93-1.556-4.933-1.556-7.134V83.792h-5.147v23.276
			c0,3.809,0.242,7.511,3.229,10.514c2.756,2.786,7.003,3.54,11.015,3.54h0.035c4.009,0,8.263-0.754,11.008-3.54
			c2.994-3.002,3.232-6.704,3.232-10.514V83.792H156.319z"/>
		<polygon class="st3" points="526.073,105.747 534.082,93.519 534.204,93.337 533.98,93.337 529.891,93.337 529.828,93.337 
			529.793,93.395 523.859,102.695 518.127,93.456 513.236,93.456 521.414,106.562 512.221,120.701 512.102,120.881 512.326,120.881 
			516.451,120.881 516.52,120.881 516.557,120.828 523.681,109.804 530.491,120.762 535.435,120.762 		"/>
		<polygon class="st3" points="223.244,93.337 219.478,93.337 219.393,93.337 219.364,93.421 211.949,115.474 204.377,93.456 
			199.698,93.456 209.423,120.762 213.947,120.802 223.354,93.492 223.406,93.337 		"/>
		<path class="st3" d="M344.636,93.337h-3.542h-0.08l-0.036,0.08l-7.415,20.395l-7.3-20.395l-12.932-0.005v-9.798l-4.182,0.43v9.368
			h-4.828v3.326h4.828v15.046c0,5.413,1.772,8.894,7.724,8.894l4.015-0.319v-3.323l-3.216,0.267c-3.428,0-4.341-1.661-4.341-4.823
			V96.739h9.761l0.017-0.018l8.194,23.525l-0.3,0.881c-1.002,2.959-1.94,5.753-5.714,5.753c-0.799,0-1.702-0.12-2.774-0.373
			l-0.142-0.03v0.147v3.388v0.094l0.091,0.021c0.912,0.243,2.011,0.488,3.145,0.488c2.452,0,3.916-0.319,5.634-2.132
			c1.498-1.621,2.107-3.232,2.806-5.094c0-0.005,10.702-29.892,10.702-29.892l0.051-0.16H344.636z"/>
	</g>
</g>
</svg>
